# xmcd
#
# Track frame offsets:
#	150
#	15836
#	30603
#	45686
#	60592
#	74980
#	87891
#	104936
#	120095
#	137344
#	151619
#	170393
#	186645
#	198714
#	213163
#	226964
#	240922
#	256205
#	272048
#	284530
#	296072
#	309184
#
# Disc length: 4285 seconds
#
# Revision: 0
# Processed by: cddbd v1.5.2PL0 Copyright (c) Steve Scherf et al.
# Submitted via: EZCDAudioConverter 7.1.0.1
#
DISCID=3610bb16
DTITLE=Hott Country Volume 283 CAN
DYEAR=2019
DGENRE=country
TTITLE0=Blake Shelton ft. Trace Adkins - Hell Right
TTITLE1=Dean Brody - Black Sheep
TTITLE2=Eric Church - Monsters
TTITLE3=Bobby Wills - It Matters To Her
TTITLE4=Chris Young - Drowning
TTITLE5=The Heels - Take The Trailer
TTITLE6=Luke Combs - Even Though I'm Leaving
TTITLE7=Don Amero - Music Lover
TTITLE8=Kip Moore - She's Mine
TTITLE9=The Abrams - Good Old Days
TTITLE10=Riley Green - I Wish Grandpa's Never Died
TTITLE11=Rodney Atkins - Thank God For You
TTITLE12=Matt Lang - Water Down The Whiskey
TTITLE13=Trea Landon - Loved By A Country Boy
TTITLE14=The Dungarees - Twenty Something
TTITLE15=David James - All The Time
TTITLE16=Noah Schnacky - I'll Be The One
TTITLE17=Gabby Barrett - I Hope
TTITLE18=Southern Halo - Sunshine
TTITLE19=Jason Pritchett - American Made
TTITLE20=Steven Lee Olsen - Hello Country
TTITLE21=Leaving Thomas - I Wanna Be It All
EXTD=
EXTT0=
EXTT1=
EXTT2=
EXTT3=
EXTT4=
EXTT5=
EXTT6=
EXTT7=
EXTT8=
EXTT9=
EXTT10=
EXTT11=
EXTT12=
EXTT13=
EXTT14=
EXTT15=
EXTT16=
EXTT17=
EXTT18=
EXTT19=
EXTT20=
EXTT21=
PLAYORDER=
